<svg width="468" height="176" viewBox="0 0 468 176" fill="none" xmlns="http://www.w3.org/2000/svg">
<path fill-rule="evenodd" clip-rule="evenodd" d="M32.2666 17.6001H8.79993V162.311H32.2666V111.467H75.2888V162.311H98.7554V111.467H98.7557V88H32.2666V17.6001ZM169.511 162.2C159.511 162.2 150.844 160 143.511 155.6C136.177 151.2 130.488 145.045 126.444 137.133C122.444 129.222 120.444 119.978 120.444 109.4C120.444 98.8224 122.444 89.5557 126.444 81.6002C130.488 73.6446 136.177 67.4668 143.511 63.0668C150.844 58.6668 159.511 56.4668 169.511 56.4668C179.511 56.4668 188.177 58.6668 195.511 63.0668C202.844 67.4668 208.511 73.6446 212.511 81.6002C216.555 89.5557 218.577 98.8224 218.577 109.4C218.577 119.978 216.555 129.222 212.511 137.133C208.511 145.045 202.844 151.2 195.511 155.6C188.177 160 179.511 162.2 169.511 162.2ZM169.644 142.867C175.066 142.867 179.6 141.378 183.244 138.4C186.888 135.378 189.6 131.333 191.377 126.267C193.2 121.2 194.111 115.556 194.111 109.333C194.111 103.067 193.2 97.4001 191.377 92.3335C189.6 87.2224 186.888 83.1557 183.244 80.1335C179.6 77.1113 175.066 75.6001 169.644 75.6001C164.088 75.6001 159.466 77.1113 155.777 80.1335C152.133 83.1557 149.4 87.2224 147.577 92.3335C145.8 97.4001 144.911 103.067 144.911 109.333C144.911 115.556 145.8 121.2 147.577 126.267C149.4 131.333 152.133 135.378 155.777 138.4C159.466 141.378 164.088 142.867 169.644 142.867ZM149.577 42.7335C146.066 42.7335 143.022 41.489 140.444 39.0001C137.911 36.5112 136.644 33.5779 136.644 30.2001C136.644 26.6446 137.911 23.6668 140.444 21.2668C143.022 18.8224 146.066 17.6001 149.577 17.6001C153.177 17.6001 156.2 18.8224 158.644 21.2668C161.133 23.6668 162.377 26.6446 162.377 30.2001C162.377 33.5779 161.133 36.5112 158.644 39.0001C156.2 41.489 153.177 42.7335 149.577 42.7335ZM189.577 42.7335C186.066 42.7335 183.022 41.489 180.444 39.0001C177.911 36.5112 176.644 33.5779 176.644 30.2001C176.644 26.6446 177.911 23.6668 180.444 21.2668C183.022 18.8224 186.066 17.6001 189.577 17.6001C193.177 17.6001 196.2 18.8224 198.644 21.2668C201.133 23.6668 202.377 26.6446 202.377 30.2001C202.377 33.5779 201.133 36.5112 198.644 39.0001C196.2 41.489 193.177 42.7335 189.577 42.7335ZM327.044 57.8001L290.577 160.2H263.911L227.444 57.8001H253.177L276.711 133.867H277.777L301.377 57.8001H327.044ZM358.994 155.8C366.461 160.067 375.327 162.2 385.594 162.2C393.55 162.2 400.616 161 406.794 158.6C412.972 156.156 418.038 152.733 421.994 148.333C425.994 143.889 428.705 138.689 430.127 132.733L407.594 130.2C406.527 133.089 404.95 135.511 402.861 137.467C400.772 139.422 398.305 140.911 395.461 141.933C392.616 142.911 389.438 143.4 385.927 143.4C380.683 143.4 376.105 142.289 372.194 140.067C368.283 137.8 365.238 134.556 363.061 130.333C360.956 126.211 359.869 121.3 359.798 115.6H431.127V108.2C431.127 99.2224 429.883 91.489 427.394 85.0002C424.905 78.4668 421.483 73.089 417.127 68.8668C412.816 64.6446 407.838 61.5335 402.194 59.5335C396.594 57.489 390.638 56.4668 384.327 56.4668C374.55 56.4668 366.038 58.7113 358.794 63.2001C351.55 67.6446 345.905 73.8668 341.861 81.8668C337.861 89.8224 335.861 99.0668 335.861 109.6C335.861 120.311 337.861 129.622 341.861 137.533C345.861 145.4 351.572 151.489 358.994 155.8ZM359.843 99.3335C360.075 95.3216 361.103 91.6105 362.927 88.2001C365.016 84.3335 367.927 81.2224 371.661 78.8668C375.394 76.4668 379.727 75.2668 384.661 75.2668C389.283 75.2668 393.327 76.3113 396.794 78.4001C400.305 80.489 403.038 83.3557 404.994 87.0002C406.95 90.6002 407.95 94.7113 407.994 99.3335H359.843Z" fill="white"/>
</svg>
