<svg width="44" height="44" viewBox="0 0 44 44" fill="none" xmlns="http://www.w3.org/2000/svg">
<circle cx="22" cy="22" r="20" stroke="#666666" stroke-width="4"/>
<path d="M15.3175 31V28.5256L21.8821 22.0902C22.5099 21.4562 23.0331 20.893 23.4517 20.4006C23.8703 19.9082 24.1842 19.4311 24.3935 18.9695C24.6027 18.5078 24.7074 18.0154 24.7074 17.4922C24.7074 16.8951 24.572 16.3842 24.3011 15.9595C24.0303 15.5287 23.6579 15.1963 23.1839 14.9624C22.71 14.7285 22.1714 14.6115 21.5682 14.6115C20.9465 14.6115 20.4017 14.7408 19.9339 14.9993C19.4661 15.2517 19.103 15.6118 18.8444 16.0796C18.5921 16.5474 18.4659 17.1044 18.4659 17.7507H15.2067C15.2067 16.5504 15.4806 15.5071 16.0284 14.6207C16.5762 13.7344 17.3302 13.0481 18.2905 12.5618C19.2569 12.0755 20.3648 11.8324 21.6143 11.8324C22.8823 11.8324 23.9964 12.0694 24.9567 12.5433C25.9169 13.0173 26.6617 13.6667 27.191 14.4915C27.7266 15.3163 27.9943 16.2581 27.9943 17.3168C27.9943 18.0246 27.8589 18.7202 27.5881 19.4034C27.3172 20.0867 26.8402 20.8438 26.1569 21.6747C25.4799 22.5057 24.5289 23.5121 23.304 24.6939L20.0447 28.0085V28.1378H28.2805V31H15.3175Z" fill="#666666"/>
</svg>
