<svg width="44" height="44" viewBox="0 0 44 44" fill="none" xmlns="http://www.w3.org/2000/svg">
<circle cx="22" cy="22" r="20" stroke="#666666" stroke-width="4"/>
<path d="M21.7159 31.2584C20.3864 31.2584 19.2046 31.0307 18.1705 30.5752C17.1425 30.1197 16.33 29.4857 15.733 28.6732C15.1359 27.8607 14.8189 26.922 14.782 25.8571H18.2536C18.2843 26.368 18.4536 26.8143 18.7614 27.1959C19.0692 27.5714 19.4785 27.8638 19.9894 28.073C20.5003 28.2823 21.0727 28.387 21.7067 28.387C22.3838 28.387 22.9839 28.27 23.5071 28.0361C24.0303 27.7961 24.4397 27.4637 24.7351 27.039C25.0306 26.6142 25.1752 26.1249 25.1691 25.5709C25.1752 24.9985 25.0275 24.4937 24.7259 24.0567C24.4243 23.6197 23.9872 23.2781 23.4148 23.0318C22.8485 22.7856 22.1653 22.6625 21.3651 22.6625H19.6939V20.0219H21.3651C22.0237 20.0219 22.5992 19.908 23.0916 19.6803C23.5902 19.4525 23.9811 19.1325 24.2642 18.7201C24.5474 18.3015 24.6859 17.8183 24.6797 17.2705C24.6859 16.735 24.5658 16.2702 24.3196 15.8763C24.0796 15.4762 23.7379 15.1654 23.2948 14.9438C22.8577 14.7222 22.3438 14.6114 21.7529 14.6114C21.1743 14.6114 20.6388 14.716 20.1463 14.9253C19.6539 15.1346 19.2569 15.4331 18.9553 15.8209C18.6537 16.2025 18.4936 16.658 18.4752 17.1874H15.179C15.2036 16.1287 15.5083 15.1992 16.0931 14.399C16.684 13.5927 17.4718 12.9649 18.4567 12.5155C19.4415 12.06 20.5464 11.8323 21.7713 11.8323C23.0332 11.8323 24.1288 12.0693 25.0583 12.5432C25.9939 13.011 26.7171 13.6419 27.228 14.436C27.7389 15.23 27.9943 16.1071 27.9943 17.0674C28.0005 18.1322 27.6866 19.0247 27.0526 19.7449C26.4247 20.4651 25.5999 20.936 24.5781 21.1576V21.3053C25.9077 21.4899 26.9264 21.9824 27.6343 22.7826C28.3483 23.5766 28.7022 24.5645 28.696 25.7463C28.696 26.805 28.3944 27.753 27.7912 28.5901C27.1942 29.4211 26.3693 30.0735 25.3168 30.5475C24.2704 31.0214 23.0701 31.2584 21.7159 31.2584Z" fill="#666666"/>
</svg>
