<svg width="100" height="40" viewBox="0 0 100 40" fill="none" xmlns="http://www.w3.org/2000/svg">
<path fill-rule="evenodd" clip-rule="evenodd" d="M7.33333 4H2V36.8889H7.33333V25.3333H22.4445V20H7.33333V4ZM38.5252 36.8636C36.2525 36.8636 34.2828 36.3636 32.6161 35.3636C30.9495 34.3636 29.6565 32.9646 28.7374 31.1667C27.8283 29.3687 27.3737 27.2677 27.3737 24.8636C27.3737 22.4596 27.8283 20.3535 28.7374 18.5455C29.6565 16.7374 30.9495 15.3333 32.6161 14.3333C34.2828 13.3333 36.2525 12.8333 38.5252 12.8333C40.798 12.8333 42.7677 13.3333 44.4343 14.3333C46.101 15.3333 47.3889 16.7374 48.298 18.5455C49.2171 20.3535 49.6767 22.4596 49.6767 24.8636C49.6767 27.2677 49.2171 29.3687 48.298 31.1667C47.3889 32.9646 46.101 34.3636 44.4343 35.3636C42.7677 36.3636 40.798 36.8636 38.5252 36.8636ZM38.5555 32.4697C39.7879 32.4697 40.8182 32.1313 41.6464 31.4545C42.4747 30.7677 43.0909 29.8485 43.4949 28.697C43.9091 27.5455 44.1161 26.2626 44.1161 24.8485C44.1161 23.4242 43.9091 22.1364 43.4949 20.9848C43.0909 19.8232 42.4747 18.899 41.6464 18.2121C40.8182 17.5252 39.7879 17.1818 38.5555 17.1818C37.2929 17.1818 36.2424 17.5252 35.404 18.2121C34.5757 18.899 33.9545 19.8232 33.5404 20.9848C33.1363 22.1364 32.9343 23.4242 32.9343 24.8485C32.9343 26.2626 33.1363 27.5455 33.5404 28.697C33.9545 29.8485 34.5757 30.7677 35.404 31.4545C36.2424 32.1313 37.2929 32.4697 38.5555 32.4697ZM33.9949 9.71212C33.1969 9.71212 32.505 9.42929 31.9192 8.86363C31.3434 8.29798 31.0555 7.63131 31.0555 6.86363C31.0555 6.05555 31.3434 5.37879 31.9192 4.83333C32.505 4.27778 33.1969 4 33.9949 4C34.8131 4 35.5 4.27778 36.0555 4.83333C36.6212 5.37879 36.904 6.05555 36.904 6.86363C36.904 7.63131 36.6212 8.29798 36.0555 8.86363C35.5 9.42929 34.8131 9.71212 33.9949 9.71212ZM43.0858 9.71212C42.2879 9.71212 41.5959 9.42929 41.0101 8.86363C40.4343 8.29798 40.1464 7.63131 40.1464 6.86363C40.1464 6.05555 40.4343 5.37879 41.0101 4.83333C41.5959 4.27778 42.2879 4 43.0858 4C43.904 4 44.5909 4.27778 45.1464 4.83333C45.7121 5.37879 45.9949 6.05555 45.9949 6.86363C45.9949 7.63131 45.7121 8.29798 45.1464 8.86363C44.5909 9.42929 43.904 9.71212 43.0858 9.71212ZM74.3283 13.1364L66.0404 36.4091H59.9798L51.6919 13.1364H57.5404L62.8889 30.4242H63.1313L68.4949 13.1364H74.3283ZM81.5896 35.4091C83.2866 36.3788 85.3018 36.8636 87.6351 36.8636C89.4432 36.8636 91.0492 36.5909 92.4533 36.0455C93.8573 35.4899 95.0088 34.7121 95.9078 33.7121C96.8169 32.702 97.4331 31.5202 97.7563 30.1667L92.6351 29.5909C92.3927 30.2475 92.0341 30.798 91.5593 31.2424C91.0846 31.6869 90.524 32.0252 89.8775 32.2576C89.231 32.4798 88.5088 32.5909 87.7108 32.5909C86.5189 32.5909 85.4785 32.3384 84.5896 31.8333C83.7007 31.3182 83.0088 30.5808 82.5139 29.6212C82.0356 28.6842 81.7884 27.5681 81.7723 26.2727H97.9836V24.5909C97.9836 22.5505 97.7007 20.7929 97.1351 19.3182C96.5694 17.8333 95.7916 16.6111 94.8017 15.6515C93.8219 14.6919 92.6906 13.9848 91.4078 13.5303C90.1351 13.0657 88.7815 12.8333 87.3472 12.8333C85.125 12.8333 83.1906 13.3434 81.5442 14.3636C79.8977 15.3737 78.6149 16.7879 77.6957 18.6061C76.7866 20.4141 76.332 22.5152 76.332 24.9091C76.332 27.3434 76.7866 29.4596 77.6957 31.2576C78.6048 33.0455 79.9028 34.4293 81.5896 35.4091ZM81.7826 22.5758C81.8353 21.664 82.069 20.8205 82.4836 20.0455C82.9583 19.1667 83.6199 18.4596 84.4684 17.9242C85.3169 17.3788 86.3018 17.1061 87.423 17.1061C88.4735 17.1061 89.3927 17.3434 90.1805 17.8182C90.9785 18.2929 91.5997 18.9444 92.0442 19.7727C92.4886 20.5909 92.7159 21.5253 92.726 22.5758H81.7826ZM22.4444 36.8889V25.3333H17.1111V36.8889H22.4444Z" fill="#0D0D0D"/>
</svg>
